<?xml version="1.0" encoding="utf-8"?>
<!-- Generator: Adobe Illustrator 27.6.1, SVG Export Plug-In . SVG Version: 6.00 Build 0)  -->
<svg version="1.1" id="Layer_1" xmlns="http://www.w3.org/2000/svg" xmlns:xlink="http://www.w3.org/1999/xlink" x="0px" y="0px"
	 viewBox="0 0 3026.2 1566.5" style="enable-background:new 0 0 3026.2 1566.5;" xml:space="preserve">
<style type="text/css">
	.st0{fill:none;stroke:#EDEDED;stroke-width:24.2424;stroke-linejoin:bevel;}
	.st1{fill:none;stroke:#EDEDED;stroke-width:39.6048;stroke-linejoin:bevel;}
	.st2{fill:none;stroke:#EDEDED;stroke-width:35.2536;stroke-linejoin:bevel;}
	.st3{fill:url(#SVGID_1_);stroke:#EDEDED;stroke-miterlimit:10;}
	.st4{fill:url(#SVGID_00000152243044012955098520000003047348652686357892_);stroke:#EDEDED;stroke-miterlimit:10;}
	.st5{fill:url(#SVGID_00000026842068211265149760000008022276048780171917_);stroke:#EDEDED;stroke-miterlimit:10;}
	.st6{fill:url(#SVGID_00000136401056902399668010000000402659551920198813_);stroke:#EDEDED;stroke-miterlimit:10;}
</style>
<line class="st0" x1="0" y1="319.1" x2="3026.2" y2="319.1"/>
<line class="st0" x1="0" y1="539.4" x2="3026.2" y2="539.4"/>
<line class="st0" x1="0" y1="759.6" x2="3026.2" y2="759.6"/>
<line class="st0" x1="0" y1="979.8" x2="3026.2" y2="979.8"/>
<line class="st0" x1="0" y1="1200" x2="3026.2" y2="1200"/>
<line class="st1" x1="3006.4" y1="307" x2="3006.4" y2="1212.1"/>
<line class="st2" x1="1550.7" y1="1420.3" x2="2024.6" y2="1420.3"/>
<linearGradient id="SVGID_1_" gradientUnits="userSpaceOnUse" x1="1623.4" y1="312.6001" x2="1951.9" y2="312.6001" gradientTransform="matrix(1 0 0 -1 0 1732)">
	<stop  offset="0" style="stop-color:#FD6D22"/>
	<stop  offset="0" style="stop-color:#FD6C22"/>
	<stop  offset="0.1111" style="stop-color:#FD6B22"/>
	<stop  offset="0.4085" style="stop-color:#FD6922"/>
	<stop  offset="0.6299" style="stop-color:#FC3D1B"/>
	<stop  offset="0.9284" style="stop-color:#FC3B1B"/>
	<stop  offset="1" style="stop-color:#FC3B1B"/>
</linearGradient>
<path class="st3" d="M1788.1,1300.5c-121.6,0-164.7,61.7-164.7,118.9s43.2,118.9,164.7,118.9s163.8-61.7,163.8-118.9
	S1909.7,1300.5,1788.1,1300.5 M1795.2,1510.1c-24.7,0-41.4-7-52.9-29.1c-11.5-22-27.3-79.3-28.2-102.2c-1.8-23.8,7-37.9,28.2-44.9
	c10.6-3.5,24.7-5.3,38.8-5.3c23.8,0,39.6,5.3,52,29.1c12.3,22.9,29.1,80.2,29.1,102.2C1862.1,1503.1,1830.4,1510.1,1795.2,1510.1"/>
<linearGradient id="SVGID_00000152230243154614917500000018323284254073190584_" gradientUnits="userSpaceOnUse" x1="165.1" y1="948.75" x2="728.9" y2="948.75" gradientTransform="matrix(1 0 0 -1 0 1732)">
	<stop  offset="0" style="stop-color:#FD6D22"/>
	<stop  offset="0" style="stop-color:#FD6C22"/>
	<stop  offset="0.1111" style="stop-color:#FD6B22"/>
	<stop  offset="0.4085" style="stop-color:#FD6922"/>
	<stop  offset="0.6299" style="stop-color:#FC3D1B"/>
	<stop  offset="0.9284" style="stop-color:#FC3B1B"/>
	<stop  offset="1" style="stop-color:#FC3B1B"/>
</linearGradient>
<path style="fill:url(#SVGID_00000152230243154614917500000018323284254073190584_);stroke:#EDEDED;stroke-miterlimit:10;" d="
	M273.5,1431.7c0,58.1,44,134.8,163,134.8c41.4,0,77.5-10.6,109.2-30c47.6-33.5,59.9-91.6,59.9-147.1c0-34.4-5.3-74-14.1-124.2
	c-2.6-17.6-7.9-44-13.2-78.4c86.3-28.2,150.6-118,150.6-208.8c0-133-94.3-222.9-222.9-222.9c-8.8-52.9-17.6-104.8-24.7-154.2
	c92.5-97.8,156.8-207.9,156.8-348c0-80.2-24.7-145.3-38.8-177.1C578.2,30.9,552.6,0,536.8,0c-6.2,0-33.5,10.6-62.5,44.9
	c-56.4,66.9-72.2,179.7-72.2,253.7c0,47.6,4.4,90.7,19.4,189.4c-0.9,0.9-46.7,47.6-65.2,62.5c-80.2,74-191.2,181.5-191.2,357.6
	c0,164.7,143.6,294.2,307.4,294.2c25.5,0,49.3-2.6,69.6-6.2c16.7,84.6,27.3,146.2,27.3,192.9c0,91.6-47.6,140.1-136.5,140.1
	c-21.1,0-39.6-4.4-41.4-4.4c-0.9-0.9-2.6-1.8-2.6-2.6c0-1.8,1.8-2.6,4.4-2.6c41.4-7,82.8-42.3,82.8-98.7
	c0-47.6-36.1-97.8-102.2-97.8C312.3,1323.4,273.5,1373.6,273.5,1431.7 M457.6,255.7C465.5,220.5,506,128,551.9,128
	c13.2,0,34.4,42.3,34.4,103.9c0,91.6-67.8,160.3-128.6,220.2c-5.3-35.2-9.7-69.6-9.7-106.6C447.9,313,450.6,283,457.6,255.7
	 M535.1,1161.3c-17.6,3.5-34.4,5.3-51.1,5.3c-126,0-233.4-88.1-233.4-221.1c0-107.5,75.8-203.5,153.3-270.4
	c15-13.2,29.1-25.5,42.3-38.8c7.9,47.6,14.1,89,20.3,125.1c-80.2,23.8-134.8,108.4-134.8,191.2c0,61.7,48.4,146.2,118.9,146.2
	c7,0,15-3.5,15-11.5c0-7.9-8.8-12.3-19.4-19.4c-34.4-21.1-53.7-44-53.7-87.2c0-53.7,40.5-96.9,91.6-109.2L535.1,1161.3 M660.2,998.3
	c0,62.5-25.5,126.8-88.1,152.4c-18.5-105.7-42.3-245.8-48.4-284.5C603,866.2,660.2,919.9,660.2,998.3"/>
<linearGradient id="SVGID_00000011720649872069677260000005700486697095216529_" gradientUnits="userSpaceOnUse" x1="949.1999" y1="1193.2002" x2="1326.1001" y2="1193.2002" gradientTransform="matrix(1 0 0 -1 0 1732)">
	<stop  offset="0" style="stop-color:#FD6D22"/>
	<stop  offset="0" style="stop-color:#FD6C22"/>
	<stop  offset="0.1111" style="stop-color:#FD6B22"/>
	<stop  offset="0.4085" style="stop-color:#FD6922"/>
	<stop  offset="0.6299" style="stop-color:#FC3D1B"/>
	<stop  offset="0.9284" style="stop-color:#FC3B1B"/>
	<stop  offset="1" style="stop-color:#FC3B1B"/>
</linearGradient>
<path style="fill:url(#SVGID_00000011720649872069677260000005700486697095216529_);stroke:#EDEDED;stroke-miterlimit:10;" d="
	M1120,651.2v65.2h-73.1c-6.2,0-12.3,5.3-12.3,12.3v16.7c0,7,6.2,12.3,12.3,12.3h266.9c7,0,12.3-5.3,12.3-12.3v-16.7
	c0-7-5.3-12.3-12.3-12.3h-78.4v-65.2h78.4c7,0,12.3-6.2,12.3-13.2v-16.7c0-6.2-5.3-12.3-12.3-12.3h-78.4V468.9c0-5.3-2.6-9.7-7-11.5
	l-10.6-5.3c-1.8-0.9-4.4-1.8-6.2-1.8c-2.6,0.9-6.2,1.8-7.9,3.5l-80.2,73.1c-2.6,2.6-3.5,6.2-3.5,9.7v72.2h-101.3
	c0,0,97.8-105.7,201.7-244.9c3.5-4.4,4.4-8.8,4.4-12.3c0-4.4-1.8-7.9-2.6-8.8l-19.4-19.4c-1.8-1.8-5.3-3.5-8.8-3.5
	c-5.3,0-124.2,0-130.4,0c-7,0-11.5,5.3-12.3,10.6c0,0-4.4,65.2-27.3,136.5c-22.9,71.4-49.3,115.4-72.2,148c0,0-2.6,4.4-2.6,9.7
	c0,1.8,0,3.5,0.9,5.3c3.5,6.2,8.8,15.9,8.8,15.9s1.8,5.3,9.7,5.3L1120,651.2"/>
<linearGradient id="SVGID_00000063633561246938605190000017716221633968297646_" gradientUnits="userSpaceOnUse" x1="949.1999" y1="752.7002" x2="1326.1001" y2="752.7002" gradientTransform="matrix(1 0 0 -1 0 1732)">
	<stop  offset="0" style="stop-color:#FD6D22"/>
	<stop  offset="0" style="stop-color:#FD6C22"/>
	<stop  offset="0.1111" style="stop-color:#FD6B22"/>
	<stop  offset="0.4085" style="stop-color:#FD6922"/>
	<stop  offset="0.6299" style="stop-color:#FC3D1B"/>
	<stop  offset="0.9284" style="stop-color:#FC3B1B"/>
	<stop  offset="1" style="stop-color:#FC3B1B"/>
</linearGradient>
<path style="fill:url(#SVGID_00000063633561246938605190000017716221633968297646_);stroke:#EDEDED;stroke-miterlimit:10;" d="
	M1120,1091.7v65.2h-73.1c-6.2,0-12.3,5.3-12.3,12.3v16.7c0,7,6.2,12.3,12.3,12.3h266.9c7,0,12.3-5.3,12.3-12.3v-16.7
	c0-7-5.3-12.3-12.3-12.3h-78.4v-65.2h78.4c7,0,12.3-6.2,12.3-13.2v-16.7c0-6.2-5.3-12.3-12.3-12.3h-78.4V909.4c0-5.3-2.6-9.7-7-11.5
	l-10.6-5.3c-1.8-0.9-4.4-1.8-6.2-1.8c-2.6,0.9-6.2,1.8-7.9,3.5l-80.2,73.1c-2.6,2.6-3.5,6.2-3.5,9.7v72.2h-101.3
	c0,0,97.8-105.7,201.7-244.9c3.5-4.4,4.4-8.8,4.4-12.3c0-4.4-1.8-7.9-2.6-8.8l-19.4-19.4c-1.8-1.8-5.3-3.5-8.8-3.5
	c-5.3,0-124.2,0-130.4,0c-7,0-11.5,5.3-12.3,10.6c0,0-4.4,65.2-27.3,136.5c-22.9,71.4-49.3,115.4-72.2,148c0,0-2.6,4.4-2.6,9.7
	c0,1.8,0,3.5,0.9,5.3c3.5,6.2,8.8,15.9,8.8,15.9s1.8,5.3,9.7,5.3L1120,1091.7"/>
</svg>
